<svg id="Layer_1" data-name="Layer 1" xmlns="http://www.w3.org/2000/svg" viewBox="0 0 32 32"><title>Alarm32x</title><path d="M27.716,17.918c-1.034-.737-1.18-2.878-1.334-5.145-.015-.213-.029-.571-.045-.968l-.006-.124c-.028-.69-.06-1.473-.094-1.815a13.023,13.023,0,0,0-.452-2.716L25.693,6.8a4.728,4.728,0,0,0-.145-.505c-.072-.2-.151-.4-.225-.57-.088-.222-.19-.445-.312-.686l-.056-.1a7.066,7.066,0,0,0-.452-.754A8.625,8.625,0,0,0,23.155,2.63l-.164-.146a9.515,9.515,0,0,0-1.321-.976c-.061-.04-.122-.078-.181-.112-.191-.11-.4-.219-.663-.342C20.659.976,20.488.9,20.318.834A11.089,11.089,0,0,0,18,.178c-.236-.039-.477-.069-.814-.107C17.1.059,17.018.05,16.932.042,16.675.021,16.4.008,16,0c-.394.008-.672.021-.93.042-.086.007-.172.017-.257.028-.338.038-.58.068-.815.107a11.069,11.069,0,0,0-2.313.656c-.17.069-.342.142-.51.221-.264.125-.475.234-.663.342-.059.034-.119.072-.184.115a9.462,9.462,0,0,0-1.318.973l-.167.147A8.708,8.708,0,0,0,7.5,4.18a7.449,7.449,0,0,0-.451.754l-.058.1c-.115.227-.22.457-.309.679-.077.177-.155.376-.225.575a4.451,4.451,0,0,0-.145.5l-.092.355a13.018,13.018,0,0,0-.452,2.712c-.035.348-.067,1.13-.1,1.82l0,.05c-.018.427-.033.816-.049,1.043-.154,2.266-.3,4.406-1.335,5.145A9.233,9.233,0,0,0,.566,25.913c.085.895.8,1.121,1.666,1.121H9.817A6.21,6.21,0,0,0,16,32a6.21,6.21,0,0,0,6.182-4.966h7.586c.865,0,1.581-.226,1.666-1.121A9.232,9.232,0,0,0,27.716,17.918ZM16,30.26a4.491,4.491,0,0,1-4.392-3.226h8.784A4.491,4.491,0,0,1,16,30.26Zm13.659-5.037H2.341A7.585,7.585,0,0,1,5.3,19.282C7.043,18.04,7.218,15.554,7.4,12.824c.017-.25.035-.64.053-1.108l.006-.141c.025-.617.052-1.245.084-1.577a10.957,10.957,0,0,1,.391-2.35l.034-.129c.023-.08.043-.161.063-.244L8.057,7.2a1.838,1.838,0,0,1,.051-.189c.08-.227.142-.385.214-.55.079-.2.159-.371.248-.547a6.858,6.858,0,0,1,.39-.658,7,7,0,0,1,1.076-1.235l.083-.073a7.52,7.52,0,0,1,1.053-.79l.2-.13c.194-.11.393-.207.544-.279.136-.065.277-.123.418-.181a9.23,9.23,0,0,1,1.948-.552c.2-.034.411-.059.62-.082l.306-.036c.231-.019.477-.03.774-.035h.033c.3,0,.543.015.77.034l.311.037c.208.022.416.048.619.082a9.225,9.225,0,0,1,1.947.552c.14.057.283.116.418.181.164.078.358.172.539.276l.21.133a7.534,7.534,0,0,1,1.051.789l.08.071a7.009,7.009,0,0,1,1.08,1.238,7.421,7.421,0,0,1,.387.654c.088.173.168.348.25.552.072.167.136.33.212.547a1.844,1.844,0,0,1,.052.189l.011.047c.023.093.045.187.07.274l.034.137a10.913,10.913,0,0,1,.392,2.359c.031.311.056.912.08,1.495l.011.25c.018.468.035.9.052,1.15.186,2.725.36,5.13,2.108,6.374A7.623,7.623,0,0,1,29.659,25.223Z"/></svg>