<svg id="Layer_1" data-name="Layer 1" xmlns="http://www.w3.org/2000/svg" viewBox="0 0 32 32"><title>CardView32x</title><g id="Layer_1-2" data-name="Layer 1"><path d="M13.517,30.565H.848a.75.75,0,0,1-.75-.75V19.188a.75.75,0,0,1,.75-.75H13.517a.75.75,0,0,1,.75.75V29.816A.75.75,0,0,1,13.517,30.565ZM1.6,29.065H12.767V19.937H1.6Z"/><path d="M31.152,30.565H18.483a.75.75,0,0,1-.75-.75V19.188a.75.75,0,0,1,.75-.75H31.152a.75.75,0,0,1,.75.75V29.816A.75.75,0,0,1,31.152,30.565Zm-11.919-1.5H30.4V19.937H19.233Z"/><path d="M13.517,13.562H.848a.75.75,0,0,1-.75-.75V2.185a.75.75,0,0,1,.75-.75H13.517a.75.75,0,0,1,.75.75V12.813A.749.749,0,0,1,13.517,13.562ZM1.6,12.062H12.767V2.935H1.6Z"/><path d="M31.152,13.562H18.483a.75.75,0,0,1-.75-.75V2.185a.75.75,0,0,1,.75-.75H31.152a.75.75,0,0,1,.75.75V12.813A.749.749,0,0,1,31.152,13.562Zm-11.919-1.5H30.4V2.935H19.233Z"/></g></svg>