<?xml version="1.0" encoding="utf-8"?>
<!-- Generator: Adobe Illustrator 20.0.0, SVG Export Plug-In . SVG Version: 6.00 Build 0)  -->
<svg version="1.1" id="Layer_1" xmlns="http://www.w3.org/2000/svg" xmlns:xlink="http://www.w3.org/1999/xlink" x="0px" y="0px"
	 viewBox="0 0 32 32" enable-background="new 0 0 32 32" xml:space="preserve">
<g>
	<path d="M30.965,12.372c-2.682-3.626-7.516-6.08-12.932-6.565c-1.432-0.128-2.636-0.128-4.066,0
		c-5.416,0.485-10.25,2.94-12.932,6.566c-0.161,0.217-0.194,0.503-0.087,0.751l5.447,12.705c0.09,0.211,0.271,0.37,0.492,0.432
		c0.068,0.019,0.137,0.029,0.206,0.029c0.156,0,0.309-0.048,0.439-0.139c1.828-1.292,4.106-2.126,6.588-2.41
		c1.243-0.141,2.524-0.14,3.758,0c2.483,0.284,4.762,1.118,6.59,2.41c0.187,0.133,0.424,0.173,0.645,0.111
		c0.221-0.062,0.402-0.221,0.492-0.432l5.447-12.706C31.158,12.875,31.125,12.589,30.965,12.372z M17.194,22.158l2.525-5.188
		l-1.068,5.345c-0.199-0.03-0.399-0.061-0.601-0.084C17.767,22.198,17.481,22.176,17.194,22.158z M24.566,24.397
		c-1.323-0.806-2.82-1.408-4.422-1.793l2.224-11.131c0.075-0.375-0.141-0.747-0.502-0.869c-0.361-0.121-0.759,0.044-0.926,0.388
		l-5.42,11.137c-0.525,0.014-1.05,0.043-1.569,0.101c-2.397,0.274-4.629,1.019-6.514,2.167L2.52,12.934
		C4.996,9.84,9.288,7.752,14.103,7.32c1.338-0.12,2.452-0.12,3.794,0c4.815,0.431,9.106,2.519,11.582,5.613L24.566,24.397z"/>
	<path d="M7.775,15.319l-0.764-2.077C7.007,13.225,7,13.208,6.989,13.181l-0.017-0.04c-0.006-0.015-0.014-0.029-0.023-0.042
		c-0.146-0.308-0.437-0.517-0.771-0.55c-0.534-0.051-0.996,0.34-1.049,0.87c-0.012,0.134,0.009,0.27,0.064,0.413
		c0.001,0.022,0.006,0.043,0.014,0.064l0.82,2.166c0.009,0.038,0.022,0.069,0.033,0.092l0.034,0.092
		c0.012,0.031,0.033,0.058,0.058,0.08c0.164,0.257,0.419,0.418,0.708,0.446c0.031,0.003,0.062,0.004,0.092,0.004h0
		c0.5,0,0.912-0.376,0.958-0.872c0.019-0.19-0.025-0.384-0.129-0.564C7.78,15.333,7.778,15.326,7.775,15.319z"/>
	<path d="M25.818,12.604c-0.291,0.028-0.546,0.19-0.71,0.448c-0.028,0.023-0.049,0.054-0.062,0.089l-0.039,0.104
		c-0.009,0.022-0.017,0.044-0.017,0.046l-0.74,2.021c-0.002,0.006-0.004,0.012-0.006,0.018c-0.103,0.177-0.149,0.371-0.133,0.568
		c0.05,0.498,0.462,0.873,0.96,0.873c0.029,0,0.059-0.001,0.089-0.004c0.285-0.027,0.535-0.182,0.698-0.43
		c0.034-0.025,0.06-0.059,0.074-0.1l0.883-2.347c0.006-0.015,0.009-0.03,0.011-0.045c0.039-0.125,0.054-0.249,0.044-0.374
		C26.817,12.945,26.36,12.555,25.818,12.604z"/>
	<path d="M12.348,13.279l-0.446-2.09c-0.003-0.022-0.008-0.042-0.018-0.08l-0.018-0.089c-0.007-0.033-0.024-0.064-0.046-0.089
		c-0.123-0.284-0.355-0.485-0.644-0.555c-0.074-0.018-0.151-0.027-0.226-0.027c-0.445,0-0.831,0.303-0.939,0.739
		c-0.029,0.121-0.032,0.247-0.01,0.376c0,0.015,0.002,0.029,0.005,0.044l0.504,2.258c0.005,0.051,0.018,0.095,0.02,0.095
		l0.019,0.096c0.007,0.036,0.026,0.068,0.051,0.094c0.125,0.275,0.353,0.469,0.636,0.538c0.075,0.018,0.152,0.027,0.228,0.027
		c0.445,0,0.831-0.304,0.939-0.742c0.042-0.185,0.024-0.38-0.052-0.568C12.352,13.298,12.35,13.289,12.348,13.279z"/>
	<path d="M17.068,12.568l-0.018-2.144v-0.08l-0.001-0.09c-0.001-0.032-0.01-0.063-0.026-0.092c-0.062-0.304-0.25-0.548-0.522-0.675
		c-0.128-0.06-0.264-0.09-0.405-0.09c-0.372,0-0.716,0.218-0.878,0.558c-0.053,0.116-0.081,0.243-0.085,0.378
		c-0.002,0.011-0.002,0.021-0.002,0.032l0.038,2.329c-0.001,0.02,0,0.039,0.002,0.082l0.002,0.101
		c0.001,0.035,0.012,0.068,0.031,0.098c0.067,0.294,0.252,0.53,0.517,0.652c0.129,0.061,0.266,0.093,0.408,0.093
		c0.373,0,0.715-0.219,0.872-0.557c0.082-0.174,0.105-0.373,0.066-0.579C17.068,12.579,17.068,12.573,17.068,12.568z"/>
</g>
</svg>
