<svg id="Layer_1" data-name="Layer 1" xmlns="http://www.w3.org/2000/svg" viewBox="0 0 32 32"><title>FittoScreen32x</title><path d="M1.5,1.5v29h29V1.5ZM16.686,29l0-5.511,2.661,2.593a.21.21,0,0,0,.354-.148l.031-1.178a.21.21,0,0,0-.066-.157l-3.437-3.249a.21.21,0,0,0-.3-.009l-3.594,3.243a.212.212,0,0,0-.066.155l.009,1.114a.21.21,0,0,0,.354.151l2.737-2.428,0,5.426H3V16.637a.2.2,0,0,0,.118.049l5.534,0L6.059,19.345a.21.21,0,0,0,.148.354l1.178.031a.21.21,0,0,0,.157-.066l3.249-3.437a.21.21,0,0,0,.009-.3L7.558,12.337a.212.212,0,0,0-.155-.066l-1.114.009a.21.21,0,0,0-.151.354l2.428,2.737-5.448,0A.2.2,0,0,0,3,15.422V3H15.35a.2.2,0,0,0-.036.087l0,5.534L12.655,6.028a.21.21,0,0,0-.354.148l-.031,1.178a.21.21,0,0,0,.066.157l3.437,3.249a.21.21,0,0,0,.3.009l3.594-3.243a.211.211,0,0,0,.066-.155L19.72,6.258a.21.21,0,0,0-.354-.151L16.629,8.535l0-5.448A.2.2,0,0,0,16.591,3H29V15.336c-.019-.006-.032-.022-.053-.022l-5.534,0,2.593-2.661a.21.21,0,0,0-.148-.354l-1.178-.031a.21.21,0,0,0-.157.066l-3.249,3.437a.21.21,0,0,0-.009.3l3.243,3.594a.211.211,0,0,0,.155.066l1.114-.009a.21.21,0,0,0,.151-.354L23.5,16.629l5.448,0c.021,0,.034-.017.054-.022V29Z"/></svg>