<svg id="Layer_1" data-name="Layer 1" xmlns="http://www.w3.org/2000/svg" viewBox="0 0 32 32"><title>Home32x</title><path d="M29.38,14.677,17.232,2.811a1.828,1.828,0,0,0-2.464,0L2.62,14.677a1.536,1.536,0,0,0-.349,1.762,1.7,1.7,0,0,0,1.58.991l1.668-.005V27.716a2,2,0,0,0,2.055,1.945l6.308.005h.13V19.914a.618.618,0,0,1,.635-.6h2.708a.618.618,0,0,1,.635.6v9.753h.13l6.308-.005a2,2,0,0,0,2.055-1.945V17.424l1.668.005a1.7,1.7,0,0,0,1.58-.991A1.536,1.536,0,0,0,29.38,14.677Zm-1.032,1.209a.2.2,0,0,1-.2.124L26.458,16h-.392s-1.085-.254-1.085,1.044V27.716a.541.541,0,0,1-.555.525l-4.833.005h-.017a1.716,1.716,0,0,0,.017-.189V19.5a1.547,1.547,0,0,0-1.475-1.607H13.881A1.547,1.547,0,0,0,12.407,19.5v8.558a1.716,1.716,0,0,0,.017.189h-.017l-4.833-.005a.541.541,0,0,1-.555-.525V17.049c0-1.3-1.085-1.044-1.085-1.044H5.542l-1.691.005a.2.2,0,0,1-.2-.124.185.185,0,0,1,.045-.221L15.846,3.8a.194.194,0,0,1,.308,0L28.3,15.665A.185.185,0,0,1,28.348,15.886Z" fill="#231f20"/></svg>