<svg id="Layer_1" data-name="Layer 1" xmlns="http://www.w3.org/2000/svg" viewBox="0 0 32 32"><title>Language32x</title><path d="M17.108,27.593a.658.658,0,0,0,.864-.338l1.12-2.553H23.62l1.1,2.549a.656.656,0,0,0,.6.4.666.666,0,0,0,.26-.053.658.658,0,0,0,.343-.863l-3.94-9.144a.655.655,0,0,0-1.2,0l-4.01,9.144a.655.655,0,0,0,.337.865Zm4.267-8.1,1.679,3.9H19.667Z"/><path d="M12.526,7.05h1.441a.634.634,0,1,0,0-1.267H3.929a.634.634,0,1,0,0,1.267h1.24a9.382,9.382,0,0,0,2.7,4.551,13.227,13.227,0,0,1-3.962,1.993A.633.633,0,1,0,4.29,14.8a14.373,14.373,0,0,0,4.556-2.347,13.087,13.087,0,0,0,2.166,1.376,1.893,1.893,0,0,1,.513-1.164,11.9,11.9,0,0,1-1.7-1.064A9.394,9.394,0,0,0,12.526,7.05ZM8.838,10.775A8.48,8.48,0,0,1,6.473,7.05H11.22A8.7,8.7,0,0,1,8.838,10.775Z"/><path d="M1.267,1.767H16.894v10.3h1.267V1.134A.634.634,0,0,0,17.528.5H.634A.634.634,0,0,0,0,1.134V18.028a.634.634,0,0,0,.634.634H11V17.394H1.267Z"/><path d="M29.793,13.339H12.9a.634.634,0,0,0-.634.634V30.866a.634.634,0,0,0,.634.634H29.793a.634.634,0,0,0,.634-.634V13.972A.634.634,0,0,0,29.793,13.339Zm-.634,16.894H13.532V14.606H29.159Z"/><path d="M7.425,3.027a.727.727,0,0,0,0,1.028l.718.718A.726.726,0,1,0,9.17,3.744l-.718-.718A.726.726,0,0,0,7.425,3.027Z"/></svg>