<svg id="Layer_1" data-name="Layer 1" xmlns="http://www.w3.org/2000/svg" viewBox="0 0 32 32"><title>Lock32x</title><path d="M27.039,10.832H24.633l0-5.991A3.3,3.3,0,0,0,23.514,2.3,3.43,3.43,0,0,0,21.2,1.5c-.646.016-4.124,0-6.918-.013-3.74-.017-3.74-.017-3.853.005A3.543,3.543,0,0,0,7.5,3.8,3.652,3.652,0,0,0,7.317,5l-.035,5.834H4.961a.822.822,0,0,0-.821.821V29.706a.821.821,0,0,0,.821.821H27.039a.822.822,0,0,0,.821-.821V11.653A.822.822,0,0,0,27.039,10.832ZM8.958,5.008a2.084,2.084,0,0,1,.094-.664,1.868,1.868,0,0,1,1.62-1.228c.334,0,1.923,0,3.6.012,2.805.012,6.3.028,6.965.012a1.761,1.761,0,0,1,1.218.411A1.668,1.668,0,0,1,23,4.841l0,5.992H8.923Zm17.26,23.877H5.782V12.473H26.219V28.885Z"/><rect x="14.995" y="18.078" width="2.011" height="5.625"/></svg>