<svg id="Layer_1" data-name="Layer 1" xmlns="http://www.w3.org/2000/svg" viewBox="0 0 32 32"><title>TextEditor32x</title><path d="M12.656,12.85a3.119,3.119,0,0,0-2.511,1.1V9.736c0-.1,0-.1-.1-.1H8.94c-.1,0-.1,0-.1.1V21.187c0,.1,0,.1.1.1h.9a.1.1,0,0,0,.1-.1l.2-.9a2.106,2.106,0,0,0,1.1.8,3.355,3.355,0,0,0,1.507.3,3.119,3.119,0,0,0,2.511-1.1,4.793,4.793,0,0,0,.9-3.114,4.793,4.793,0,0,0-.9-3.114A3.107,3.107,0,0,0,12.656,12.85Zm1.507,6.529a1.824,1.824,0,0,1-1.607.8,1.838,1.838,0,0,1-1.708-.7,3.923,3.923,0,0,1-.5-2.411,4.793,4.793,0,0,1,.5-2.411,2.1,2.1,0,0,1,1.708-.7,1.76,1.76,0,0,1,1.607.7,3.766,3.766,0,0,1,.5,2.31A4.793,4.793,0,0,1,14.163,19.379Z"/><polygon points="32 9.628 32 8.121 25.932 8.121 25.932 9.628 28.213 9.628 28.213 22.372 25.932 22.372 25.932 23.879 32 23.879 32 22.372 29.719 22.372 29.719 9.628 32 9.628"/><path d="M3.616,12.85a5.929,5.929,0,0,0-1.406.2,7.074,7.074,0,0,0-1.306.5l.6,1.1a5.237,5.237,0,0,1,2.21-.6c.6,0,1.255.072,1.456.373.3.3.151,1.736.151,1.736H4.018c-2.712.1-4.018,1-4.018,2.712a2.149,2.149,0,0,0,.7,1.808,2.9,2.9,0,0,0,1.908.6,3.354,3.354,0,0,0,1.507-.3,4.72,4.72,0,0,0,1.205-.9l.2,1.088,1,.017c.1,0,.1,0,.1-.1V15.562a2.552,2.552,0,0,0-.7-2.109A4.161,4.161,0,0,0,3.616,12.85ZM4.88,19.2a2.085,2.085,0,0,1-.36.484,2.363,2.363,0,0,1-1.708.6,1.8,1.8,0,0,1-1.1-.3,1.273,1.273,0,0,1-.4-.9,1.432,1.432,0,0,1,.6-1.205,3.539,3.539,0,0,1,2.009-.4h1.1l.028.206A3.017,3.017,0,0,1,4.88,19.2Z"/><path d="M21.8,20.182a2.065,2.065,0,0,1-1.937-1.177,8.014,8.014,0,0,1-.306-2.66c0-.04.011-.075.015-.114.148-1.252.848-2.354,3.032-1.874l.6.2h.1l.1-.1.4-1v-.1a4.669,4.669,0,0,0-.9-.3,4.891,4.891,0,0,0-1.205-.1,3.625,3.625,0,0,0-2.812,1.1,4.415,4.415,0,0,0-1,3.214,4.311,4.311,0,0,0,1,3.114,3.78,3.78,0,0,0,2.812,1.1,4.658,4.658,0,0,0,2.109-.4l.1-.1V19.781h-.1A5.108,5.108,0,0,1,21.8,20.182Z"/></svg>