<svg id="Layer_1" data-name="Layer 1" xmlns="http://www.w3.org/2000/svg" viewBox="0 0 32 32"><title>Trend32x</title><path d="M30.684,29.509H2.132V1.675a.816.816,0,1,0-1.632,0v28.65a.816.816,0,0,0,.816.816H30.684a.816.816,0,0,0,0-1.632Z" fill="#221f1f"/><path d="M6.685,24.968a.816.816,0,0,0,1.13-.231l6.447-9.757,4.856,3.264a.816.816,0,0,0,1.1-.174L29.508,6.216a.816.816,0,1,0-1.284-1.006L19.4,16.468l-4.909-3.3a.816.816,0,0,0-1.136.227l-6.9,10.443A.816.816,0,0,0,6.685,24.968Z" fill="#221f1f"/></svg>