<svg id="Layer_1" data-name="Layer 1" xmlns="http://www.w3.org/2000/svg" viewBox="0 0 24 24"><title>User24x</title>
<path d="M6.78001 17.94H17.22V15.21C17.2121 14.3594 16.8701 13.5459 16.2676 12.9454C15.6652 12.3448 14.8507 12.0052 14 12H10C9.14071 12 8.3166 12.3414 7.70898 12.949C7.10137 13.5566 6.76001 14.3807 6.76001 15.24L6.78001 17.94Z" fill="#231f20"/>
<path d="M12.0001 1.57001C14.0629 1.57001 16.0795 2.18172 17.7947 3.32778C19.5099 4.47384 20.8467 6.10279 21.6361 8.00862C22.4256 9.91445 22.6321 12.0116 22.2297 14.0348C21.8272 16.058 20.8339 17.9165 19.3752 19.3751C17.9165 20.8338 16.0581 21.8272 14.0349 22.2296C12.0116 22.632 9.91452 22.4255 8.00869 21.6361C6.10285 20.8466 4.47391 19.5098 3.32785 17.7946C2.18178 16.0794 1.57007 14.0629 1.57007 12C1.57272 9.23461 2.67244 6.58324 4.62787 4.62781C6.58331 2.67238 9.23468 1.57265 12.0001 1.57001ZM12.0001 0.0700073C9.64054 0.0700073 7.334 0.76969 5.37212 2.08057C3.41024 3.39146 1.88114 5.25467 0.978191 7.43459C0.0752375 9.61452 -0.161016 12.0132 0.299305 14.3274C0.759627 16.6416 1.89585 18.7674 3.56429 20.4358C5.23273 22.1042 7.35845 23.2405 9.67265 23.7008C11.9868 24.1611 14.3856 23.9248 16.5655 23.0219C18.7454 22.1189 20.6086 20.5898 21.9195 18.628C23.2304 16.6661 23.9301 14.3595 23.9301 12C23.9301 10.4333 23.6215 8.88201 23.022 7.43459C22.4224 5.98718 21.5437 4.67203 20.4359 3.56422C19.3281 2.45642 18.0129 1.57766 16.5655 0.978124C15.1181 0.378586 13.5667 0.0700073 12.0001 0.0700073Z" fill="#231f20"/>
<path d="M11.9999 11.23C13.8556 11.23 15.3599 9.72569 15.3599 7.87001C15.3599 6.01433 13.8556 4.51001 11.9999 4.51001C10.1442 4.51001 8.63989 6.01433 8.63989 7.87001C8.63989 9.72569 10.1442 11.23 11.9999 11.23Z" fill="#231f20"/></svg>
