<?xml version="1.0" encoding="UTF-8"?>
<svg id="Layer_2" data-name="Layer 2" xmlns="http://www.w3.org/2000/svg" xmlns:xlink="http://www.w3.org/1999/xlink" viewBox="0 0 880.3 238.41">
  <defs>
    <style>
      .cls-1 {
        fill: #6d6e71;
      }

      .cls-2 {
        fill: #231f20;
      }

      .cls-3 {
        fill: url(#RA-Gradient_Orange_to_Red);
      }

      .cls-4 {
        fill: #cd163f;
      }
    </style>
    <linearGradient id="RA-Gradient_Orange_to_Red" data-name="RA-Gradient | Orange to Red" x1="27.67" y1="223.67" x2="113.03" y2="75.82" gradientUnits="userSpaceOnUse">
      <stop offset=".28" stop-color="#cd163f"/>
      <stop offset=".9" stop-color="#f48024"/>
    </linearGradient>
  </defs>
  <g id="Layer_1-2" data-name="Layer 1">
    <g>
      <g>
        <path class="cls-2" d="M770.87.63h4.03c.47,0,.79.32.79.79v53.78c0,.47-.32.79-.79.79h-3.95c-.4,0-.71-.24-.95-.55l-26.97-43.89c-.16-.32-.4-.24-.4.08l.08,43.58c0,.47-.32.79-.79.79h-4.03c-.47,0-.79-.32-.79-.79V1.42c0-.47.32-.79.79-.79h3.96c.39,0,.71.24.95.55l26.97,43.89c.16.32.4.24.4-.08l-.08-43.58c0-.47.32-.79.79-.79Z"/>
        <path class="cls-2" d="M791.2,38.28v-19.93c0-10.99,7.51-18.35,18.82-18.35s18.9,7.36,18.9,18.35v19.93c0,11.07-7.51,18.35-18.9,18.35s-18.82-7.28-18.82-18.35ZM823.31,38.51v-20.25c0-7.99-5.3-13.37-13.29-13.37s-13.21,5.38-13.21,13.37v20.25c0,7.99,5.3,13.29,13.21,13.29s13.29-5.3,13.29-13.29Z"/>
        <path class="cls-2" d="M856.6,55.36l-17.24-53.86c-.16-.55.08-.87.63-.87h4.27c.4,0,.79.24.95.63l14.39,46.34c.08.24.39.24.47,0l14.39-46.34c.16-.4.55-.63.95-.63h4.19c.55,0,.79.32.63.87l-17.4,53.86c-.16.4-.55.63-.95.63h-4.35c-.39,0-.79-.24-.95-.63Z"/>
      </g>
      <g>
        <path class="cls-2" d="M743.1,172.91h20.97c.4,0,.67.27.67.67v2.8c0,.4-.27.67-.67.67h-26.64c-.4,0-.67-.27-.67-.67v-2.8c0-.33.07-.53.33-.8,5.28-6.34,10.28-12.69,15.16-18.7,3.94-5.01,6.28-9.21,6.28-12.35,0-4.67-3.47-7.81-8.68-7.81s-8.48,3.14-8.41,7.88v2.07c0,.4-.27.67-.67.67h-3.47c-.4,0-.67-.27-.67-.67v-2.67c.2-6.88,5.68-11.42,13.22-11.42,8.21,0,13.49,5.01,13.49,11.89,0,3.94-2.2,8.48-6.28,13.69-4.34,5.54-9.15,11.29-14.09,17.23-.13.2-.07.33.13.33Z"/>
        <path class="cls-2" d="M775.34,164.23v-21.1c0-8.15,5.47-13.42,14.02-13.42s14.22,5.28,14.22,13.42v21.1c0,8.21-5.61,13.49-14.22,13.49s-14.02-5.28-14.02-13.49ZM798.85,164.5v-21.57c0-5.47-3.74-9.01-9.48-9.01s-9.28,3.54-9.28,9.01v21.57c0,5.47,3.67,9.08,9.28,9.08s9.48-3.61,9.48-9.08Z"/>
        <path class="cls-2" d="M820.61,172.91h20.97c.4,0,.67.27.67.67v2.8c0,.4-.27.67-.67.67h-26.64c-.4,0-.67-.27-.67-.67v-2.8c0-.33.07-.53.33-.8,5.28-6.34,10.28-12.69,15.16-18.7,3.94-5.01,6.28-9.21,6.28-12.35,0-4.67-3.47-7.81-8.68-7.81s-8.48,3.14-8.41,7.88v2.07c0,.4-.27.67-.67.67h-3.47c-.4,0-.67-.27-.67-.67v-2.67c.2-6.88,5.68-11.42,13.22-11.42,8.21,0,13.49,5.01,13.49,11.89,0,3.94-2.2,8.48-6.28,13.69-4.34,5.54-9.15,11.29-14.09,17.23-.13.2-.07.33.13.33Z"/>
        <path class="cls-2" d="M879.1,162.63c0,1.67-.07,3.54-.6,5.61-1.54,5.68-6.34,9.28-12.75,9.28s-11.02-3.54-12.62-8.81c-.33-1-.53-2-.6-2.94-.07-.4.2-.67.6-.67h3.54c.4,0,.67.2.73.67,0,.4.13.87.27,1.33.87,3.81,3.81,6.28,8.01,6.28s7.34-2.54,8.21-6.74c.33-1.27.4-3.07.4-4.01,0-1.13-.07-2.67-.33-4.34-.67-4.21-3.94-6.28-8.15-6.28-3.87,0-7.35,1.87-8.28,4.88-.13.4-.33.6-.73.6h-3.61c-.4,0-.67-.27-.67-.67v-25.84c0-.4.27-.67.67-.67h23.37c.4,0,.67.27.67.67v2.8c0,.4-.27.67-.67.67h-19.03c-.13,0-.27.13-.27.27l-.07,16.16c0,.2.13.33.33.13,2.2-2.07,5.41-3.21,8.75-3.21,6.14,0,10.95,3.07,12.22,8.81.53,2.6.6,4.61.6,6.01Z"/>
      </g>
      <g>
        <path class="cls-2" d="M736.13,204.5v-10.09c0-4.14,2.73-6.71,6.87-6.71s6.9,2.56,6.9,6.71v.3c0,.23-.17.39-.39.39l-4.67.2c-.26,0-.39-.13-.39-.39v-.89c0-.99-.56-1.64-1.45-1.64s-1.41.66-1.41,1.64v10.95c0,.95.56,1.61,1.41,1.61s1.45-.66,1.45-1.61v-.95c0-.23.16-.39.39-.39l4.67.2c.23,0,.39.16.39.39v.3c0,4.11-2.76,6.74-6.9,6.74s-6.87-2.63-6.87-6.74Z"/>
        <path class="cls-2" d="M761.04,187.97h4.67c.23,0,.39.16.39.39v22.22c0,.23-.16.39-.39.39h-4.67c-.23,0-.39-.16-.39-.39v-8.61c0-.1-.07-.16-.17-.16h-2.37c-.1,0-.16.07-.16.16v8.61c0,.23-.16.39-.39.39h-4.67c-.23,0-.39-.16-.39-.39v-22.22c0-.23.16-.39.39-.39h4.67c.23,0,.39.16.39.39v8.58c0,.1.06.16.16.16h2.37c.1,0,.17-.07.17-.16v-8.58c0-.23.16-.39.39-.39Z"/>
        <path class="cls-2" d="M769.03,210.58v-22.22c0-.23.16-.39.39-.39h4.67c.23,0,.39.16.39.39v22.22c0,.23-.16.39-.39.39h-4.67c-.23,0-.39-.16-.39-.39Z"/>
        <path class="cls-2" d="M777.15,204.5v-10.09c0-4.14,2.73-6.71,6.87-6.71s6.9,2.56,6.9,6.71v.3c0,.23-.16.39-.39.39l-4.67.2c-.26,0-.39-.13-.39-.39v-.89c0-.99-.56-1.64-1.45-1.64s-1.41.66-1.41,1.64v10.95c0,.95.56,1.61,1.41,1.61s1.45-.66,1.45-1.61v-.95c0-.23.16-.39.39-.39l4.67.2c.23,0,.39.16.39.39v.3c0,4.11-2.76,6.74-6.9,6.74s-6.87-2.63-6.87-6.74Z"/>
        <path class="cls-2" d="M802.65,210.61l-.43-2.86c0-.1-.1-.17-.2-.17h-3.55c-.1,0-.2.07-.2.17l-.39,2.86c-.03.26-.2.36-.43.36h-4.67c-.26,0-.39-.13-.33-.43l4.77-22.22c.03-.23.2-.36.43-.36h5.36c.23,0,.39.13.43.36l4.73,22.22c.07.3-.07.43-.33.43h-4.77c-.23,0-.39-.1-.43-.36ZM799.13,203.38h2.2c.1,0,.13-.07.13-.16l-1.18-7.49c-.03-.16-.16-.16-.2,0l-1.08,7.49c0,.1.03.16.13.16Z"/>
        <path class="cls-2" d="M809.52,204.76v-10.62c0-3.94,2.73-6.44,6.87-6.44s6.9,2.53,6.9,6.51v1.22c0,.23-.17.39-.39.39h-4.67c-.23,0-.39-.16-.39-.39v-1.28c0-1.05-.56-1.77-1.45-1.77s-1.41.72-1.41,1.77v10.65c0,1.05.56,1.77,1.41,1.77s1.45-.72,1.45-1.77v-2.1c0-.1-.07-.17-.16-.17h-.86c-.23,0-.39-.16-.39-.39v-3.48c0-.23.16-.39.39-.39h6.08c.23,0,.39.16.39.39v6.11c0,3.94-2.76,6.47-6.9,6.47s-6.87-2.53-6.87-6.47Z"/>
        <path class="cls-2" d="M825.72,204.43v-9.93c0-4.14,2.73-6.8,6.97-6.8s7,2.66,7,6.8v9.93c0,4.17-2.79,6.8-7,6.8s-6.97-2.63-6.97-6.8ZM834.23,204.66v-10.39c0-1.15-.56-1.91-1.54-1.91s-1.51.76-1.51,1.91v10.39c0,1.15.56,1.91,1.51,1.91s1.54-.76,1.54-1.91Z"/>
        <path class="cls-2" d="M842.09,214.03l.62-7.89c.03-.23.2-.39.43-.39h4.01c.26,0,.43.13.36.43l-1.81,7.89c-.06.23-.2.36-.43.36h-2.79c-.26,0-.43-.13-.39-.39Z"/>
        <path class="cls-2" d="M857.57,210.58v-22.22c0-.23.16-.39.39-.39h4.67c.23,0,.39.16.39.39v22.22c0,.23-.16.39-.39.39h-4.67c-.23,0-.39-.16-.39-.39Z"/>
        <path class="cls-2" d="M865.95,210.58v-22.22c0-.23.16-.39.39-.39h4.67c.23,0,.39.16.39.39v17.78c0,.1.07.16.16.16h6.71c.23,0,.39.16.39.39v3.88c0,.23-.16.39-.39.39h-11.93c-.23,0-.39-.16-.39-.39Z"/>
      </g>
      <g>
        <path class="cls-2" d="M736.36,231.31v-12.01c0-.17.12-.3.3-.3h3.52c.17,0,.3.12.3.3v12.41c0,.79.4,1.34,1.04,1.34s1.04-.55,1.04-1.34v-12.41c0-.17.12-.3.3-.3h3.52c.17,0,.3.12.3.3v12.01c0,3.18-2.06,5.26-5.16,5.26s-5.16-2.08-5.16-5.26Z"/>
        <path class="cls-2" d="M756.21,219.01h3.47c.17,0,.3.12.3.3v16.77c0,.17-.12.3-.3.3h-3.95c-.17,0-.3-.1-.35-.25l-2.46-8.63c-.02-.1-.15-.12-.15,0l.05,8.58c0,.17-.12.3-.3.3h-3.47c-.17,0-.3-.12-.3-.3v-16.77c0-.17.12-.3.3-.3h3.89c.17,0,.3.1.35.25l2.48,8.68c.03.1.15.1.15-.03l-.03-8.61c0-.17.12-.3.3-.3Z"/>
        <path class="cls-2" d="M762.21,236.08v-16.77c0-.17.12-.3.3-.3h3.52c.17,0,.3.12.3.3v16.77c0,.17-.12.3-.3.3h-3.52c-.17,0-.3-.12-.3-.3Z"/>
        <path class="cls-2" d="M779.18,219.3v2.93c0,.17-.12.3-.3.3h-3.08c-.07,0-.12.05-.12.12v13.42c0,.17-.12.3-.3.3h-3.52c-.17,0-.3-.12-.3-.3v-13.42c0-.07-.05-.12-.12-.12h-2.95c-.17,0-.3-.12-.3-.3v-2.93c0-.17.12-.3.3-.3h10.4c.17,0,.3.12.3.3Z"/>
        <path class="cls-2" d="M790.3,222.53h-4.99c-.07,0-.12.05-.12.12v3.13c0,.07.05.12.12.12h2.73c.17,0,.3.12.3.3v2.95c0,.17-.12.3-.3.3h-2.73c-.07,0-.12.05-.12.12v3.15c0,.07.05.12.12.12h4.99c.17,0,.3.12.3.3v2.93c0,.17-.12.3-.3.3h-8.93c-.17,0-.3-.12-.3-.3v-16.77c0-.17.12-.3.3-.3h8.93c.17,0,.3.12.3.3v2.93c0,.17-.12.3-.3.3Z"/>
        <path class="cls-2" d="M792.5,236.08v-16.77c0-.17.12-.3.3-.3h4.74c3.18,0,5.26,1.93,5.26,4.89v7.59c0,2.95-2.08,4.89-5.26,4.89h-4.74c-.17,0-.3-.12-.3-.3ZM796.75,232.85l.7-.02c.69-.03,1.21-.65,1.24-1.61v-7.05c0-.99-.5-1.64-1.27-1.64h-.67c-.07,0-.12.05-.12.12v10.07c0,.07.05.12.12.12Z"/>
        <path class="cls-2" d="M810.15,231.96v-.77c0-.17.12-.3.3-.3h3.47c.17,0,.3.12.3.3v.57c0,.79.42,1.29,1.02,1.29s1.02-.47,1.02-1.19c0-.79-.57-1.27-2.23-2.46-1.81-1.29-3.97-2.83-3.97-5.81s2.04-4.79,5.06-4.79,5.09,1.96,5.09,4.86v.6c0,.17-.12.3-.3.3h-3.45c-.17,0-.3-.12-.3-.3v-.7c0-.72-.45-1.24-1.04-1.24s-.99.5-.99,1.27c0,.84.47,1.34,2.13,2.56,2.58,1.91,4.04,3.05,4.04,5.56,0,3-2.06,4.86-5.09,4.86s-5.06-1.91-5.06-4.61Z"/>
        <path class="cls-2" d="M832.7,219.3v2.93c0,.17-.12.3-.3.3h-3.08c-.07,0-.12.05-.12.12v13.42c0,.17-.12.3-.3.3h-3.52c-.17,0-.3-.12-.3-.3v-13.42c0-.07-.05-.12-.12-.12h-2.95c-.17,0-.3-.12-.3-.3v-2.93c0-.17.12-.3.3-.3h10.4c.17,0,.3.12.3.3Z"/>
        <path class="cls-2" d="M840.22,236.1l-.32-2.16c0-.07-.07-.12-.15-.12h-2.68c-.07,0-.15.05-.15.12l-.3,2.16c-.02.2-.15.27-.32.27h-3.52c-.2,0-.3-.1-.25-.32l3.6-16.77c.03-.17.15-.27.32-.27h4.04c.17,0,.3.1.32.27l3.57,16.77c.05.22-.05.32-.25.32h-3.6c-.17,0-.3-.07-.32-.27ZM837.56,230.64h1.66c.07,0,.1-.05.1-.12l-.89-5.66c-.03-.12-.12-.12-.15,0l-.82,5.66c0,.07.03.12.1.12Z"/>
        <path class="cls-2" d="M855.3,219.3v2.93c0,.17-.12.3-.3.3h-3.08c-.07,0-.12.05-.12.12v13.42c0,.17-.12.3-.3.3h-3.52c-.17,0-.3-.12-.3-.3v-13.42c0-.07-.05-.12-.12-.12h-2.95c-.17,0-.3-.12-.3-.3v-2.93c0-.17.12-.3.3-.3h10.4c.17,0,.3.12.3.3Z"/>
        <path class="cls-2" d="M866.42,222.53h-4.99c-.08,0-.12.05-.12.12v3.13c0,.07.05.12.12.12h2.73c.17,0,.3.12.3.3v2.95c0,.17-.12.3-.3.3h-2.73c-.08,0-.12.05-.12.12v3.15c0,.07.05.12.12.12h4.99c.17,0,.3.12.3.3v2.93c0,.17-.12.3-.3.3h-8.93c-.17,0-.3-.12-.3-.3v-16.77c0-.17.12-.3.3-.3h8.93c.17,0,.3.12.3.3v2.93c0,.17-.12.3-.3.3Z"/>
        <path class="cls-2" d="M868.4,231.96v-.77c0-.17.12-.3.3-.3h3.47c.17,0,.3.12.3.3v.57c0,.79.42,1.29,1.02,1.29s1.02-.47,1.02-1.19c0-.79-.57-1.27-2.23-2.46-1.81-1.29-3.97-2.83-3.97-5.81s2.03-4.79,5.06-4.79,5.09,1.96,5.09,4.86v.6c0,.17-.12.3-.3.3h-3.45c-.17,0-.3-.12-.3-.3v-.7c0-.72-.45-1.24-1.04-1.24s-.99.5-.99,1.27c0,.84.47,1.34,2.13,2.56,2.58,1.91,4.04,3.05,4.04,5.56,0,3-2.06,4.86-5.09,4.86s-5.06-1.91-5.06-4.61Z"/>
      </g>
      <g>
        <path class="cls-2" d="M741.52,70.78h3.41c.38,0,.63.25.63.63v42.9c0,.38-.25.63-.63.63h-3.22c-.38,0-.63-.25-.63-.63v-38.42c0-.19-.19-.25-.31-.19l-6.69,2.71c-.38.19-.7,0-.76-.44l-.32-2.4c-.06-.32.13-.57.44-.76l7.26-3.85c.25-.13.57-.19.82-.19Z"/>
        <path class="cls-2" d="M762.34,114.19l14.57-39.18c.06-.13,0-.32-.19-.32h-17.04c-.13,0-.25.13-.25.25v2.9c0,.38-.25.63-.63.63h-2.59c-.38,0-.63-.25-.63-.63l.06-6.44c0-.44.25-.63.63-.63h24.86c.38,0,.63.25.63.63v2.9c0,.25-.06.5-.13.76l-14.51,39.37c-.13.38-.44.5-.76.5h-3.53c-.44,0-.63-.32-.5-.76Z"/>
        <path class="cls-2" d="M787.52,96.65v-2.65c0-.38.25-.63.63-.63h18.68c.38,0,.63.25.63.63v2.65c0,.38-.25.63-.63.63h-18.68c-.38,0-.63-.25-.63-.63Z"/>
        <path class="cls-2" d="M821.53,111.03h19.81c.38,0,.63.25.63.63v2.65c0,.38-.25.63-.63.63h-25.17c-.38,0-.63-.25-.63-.63v-2.65c0-.32.06-.5.31-.76,4.98-5.99,9.72-11.99,14.32-17.67,3.72-4.73,5.93-8.71,5.93-11.67,0-4.42-3.28-7.38-8.2-7.38s-8.01,2.97-7.95,7.45v1.96c0,.38-.25.63-.63.63h-3.28c-.38,0-.63-.25-.63-.63v-2.52c.19-6.5,5.36-10.79,12.49-10.79,7.76,0,12.75,4.73,12.75,11.23,0,3.72-2.08,8.01-5.93,12.93-4.1,5.24-8.64,10.66-13.31,16.28-.13.19-.06.32.13.32Z"/>
        <path class="cls-2" d="M852,102.83v-19.94c0-7.7,5.17-12.68,13.25-12.68s13.44,4.98,13.44,12.68v19.94c0,7.76-5.3,12.75-13.44,12.75s-13.25-4.98-13.25-12.75ZM874.21,103.08v-20.38c0-5.17-3.53-8.52-8.96-8.52s-8.77,3.34-8.77,8.52v20.38c0,5.17,3.47,8.58,8.77,8.58s8.96-3.41,8.96-8.58Z"/>
      </g>
      <path class="cls-1" d="M697.9,238.41c-.83,0-1.5-.67-1.5-1.5V2.06c0-.83.67-1.5,1.5-1.5s1.5.67,1.5,1.5v234.84c0,.83-.67,1.5-1.5,1.5Z"/>
      <g>
        <path class="cls-2" d="M189.9,155.65c-2.27-6.43-3.03-14-3.03-22.71,0-9.84,1.13-16.84,3.03-22.33,5.3-16.65,20.43-27.06,39.92-27.06s35.76,11.35,40.3,25.92c.76,2.46,1.13,4.54,1.32,6.05s-.76,2.46-2.08,2.65l-17.03,2.46c-1.33.19-2.27-.38-2.65-1.89,0-.57,0-.95-.19-1.51-.19-.95-.38-1.7-.76-2.65-2.27-6.81-9.27-12.11-18.92-12.11s-16.65,5.49-18.92,13.81c-1.13,3.59-1.89,9.46-1.89,16.84,0,7.76.76,13.24,1.7,16.84,2.46,8.7,9.08,14.38,19.11,14.38s17.03-5.49,19.11-13.62c.19-.38.19-.76.19-.95.19-.19.19-.38.19-.57.38-1.51,1.32-2.08,2.65-1.89l17.03,2.65c1.32.19,2.27,1.14,2.08,2.65-.19,1.13-.38,2.65-.95,4.35-4.92,16.27-20.81,26.3-40.3,26.3s-34.44-10.78-39.92-27.62Z"/>
        <path class="cls-2" d="M335.64,86.4c1.14.57,1.32,1.7,1.14,2.84l-3.22,17.03c-.19,1.51-1.14,1.89-2.65,1.33-2.46-.95-6.24-1.33-10.41-.76-10.22.57-18.54,7.57-18.54,19.11v53.55c0,1.32-.95,2.27-2.27,2.27h-17.41c-1.33,0-2.27-.95-2.27-2.27v-92.14c0-1.32.95-2.27,2.27-2.27h17.41c1.33,0,2.27.95,2.27,2.27v8.51c0,.95.57,1.14.95.38,4.92-7.57,12.11-12.3,22.14-12.3,4.92,0,8.14,1.13,10.6,2.46Z"/>
        <path class="cls-2" d="M421.71,139c0,1.51-.95,2.27-2.27,2.27h-59.22c-.57,0-.95.38-.95.95.38,3.59.76,6.43,1.7,8.51,2.84,8.51,10.03,13.62,22.14,13.81,9.27,0,15.89-4.16,20.43-10.6.95-1.32,2.08-1.51,3.22-.57l11.73,9.65c1.14.95,1.32,1.89.57,3.03-7.95,11.16-21.76,17.6-38.03,17.41-19.68-.38-33.11-9.65-39.36-25.16-3.03-7-4.35-15.52-4.35-25.54-.19-7.76.38-14.76,2.27-20.62,5.11-17.41,19.68-28.57,39.54-28.57,26.68,0,39.17,15.14,42,38.98.76,5.3.76,10.41.57,16.46ZM360.98,115.72c-.95,2.46-1.32,5.11-1.51,8.33-.19.57.19.95.76.95h38.41c.57,0,.95-.38.95-.95-.19-2.84-.57-5.49-1.13-7.19-2.27-8.89-9.08-14.38-19.3-14.38-9.65,0-15.7,5.11-18.16,13.24Z"/>
        <path class="cls-2" d="M508.26,115.72v63.76c0,1.32-.95,2.27-2.27,2.27h-17.41c-1.32,0-2.27-.95-2.27-2.27v-6.05c0-.76-.57-.95-1.14-.38-6.05,6.62-15.14,10.22-26.87,10.22-17.6,0-32.54-8.7-32.54-28.57s14.19-31.22,39.36-31.22h20.25c.57,0,.95-.38.95-.95v-4.54c0-9.65-5.68-15.52-17.41-15.52-9.65,0-15.7,3.59-17.22,9.65-.38,1.33-1.33,2.08-2.65,1.89l-18.35-2.27c-1.32-.19-2.27-.95-2.08-1.89,1.89-15.14,17.6-26.3,39.73-26.3,24.22,0,39.92,13.62,39.92,32.17ZM486.31,148.46v-8.89c0-.57-.38-.95-.95-.95h-15.89c-13.06,0-21.57,5.11-21.57,14.57,0,8.33,6.81,12.68,15.89,12.68,11.92,0,22.52-7,22.52-17.41Z"/>
        <path class="cls-2" d="M567.97,102.86h-19.3c-.57,0-.95.38-.95.95v45.6c0,9.65,4.16,13.62,13.06,13.62h5.68c1.32,0,2.27.95,2.27,2.27v14.19c0,1.32-.76,2.27-2.27,2.46-3.41,0-6.62.19-9.84.19-18.16,0-29.71-4.35-29.9-24.41v-53.92c0-.57-.38-.95-.95-.95h-10.79c-1.32,0-2.27-.95-2.27-2.27v-13.24c0-1.32.95-2.27,2.27-2.27h10.79c.57,0,.95-.38.95-.95v-22.14c0-1.33.95-2.27,2.27-2.27h16.46c1.32,0,2.27.95,2.27,2.27v22.14c0,.57.38.95.95.95h19.3c1.32,0,2.27.95,2.27,2.27v13.24c0,1.32-.95,2.27-2.27,2.27Z"/>
        <path class="cls-2" d="M657.99,139c0,1.51-.95,2.27-2.27,2.27h-59.22c-.57,0-.95.38-.95.95.38,3.59.76,6.43,1.7,8.51,2.84,8.51,10.03,13.62,22.14,13.81,9.27,0,15.89-4.16,20.43-10.6.95-1.32,2.08-1.51,3.22-.57l11.73,9.65c1.14.95,1.32,1.89.57,3.03-7.95,11.16-21.76,17.6-38.03,17.41-19.68-.38-33.11-9.65-39.36-25.16-3.03-7-4.35-15.52-4.35-25.54-.19-7.76.38-14.76,2.27-20.62,5.11-17.41,19.68-28.57,39.54-28.57,26.68,0,39.17,15.14,42,38.98.76,5.3.76,10.41.57,16.46ZM597.26,115.72c-.95,2.46-1.32,5.11-1.51,8.33-.19.57.19.95.76.95h38.41c.57,0,.95-.38.95-.95-.19-2.84-.57-5.49-1.13-7.19-2.27-8.89-9.08-14.38-19.3-14.38-9.65,0-15.7,5.11-18.16,13.24Z"/>
      </g>
      <g>
        <path class="cls-2" d="M201.57,236.4l-9.26-31.6c-.13-.52.13-.91.65-.91h6.15c.45,0,.78.2.91.65l5.37,21.62c.06.26.32.26.39,0l5.63-21.62c.13-.45.45-.65.91-.65h5.37c.45,0,.78.2.91.65l5.76,21.62c.06.26.32.26.39,0l5.76-21.62c.13-.45.45-.65.91-.65l6.09.13c.52,0,.78.32.65.84l-9.32,31.53c-.13.39-.39.65-.84.65h-6.21c-.45,0-.78-.26-.91-.65l-5.7-19.75c-.07-.26-.32-.26-.39,0l-5.24,19.75c-.13.45-.45.65-.91.65h-6.15c-.45,0-.78-.26-.91-.65Z"/>
        <path class="cls-2" d="M271.29,215.03v21.24c0,.45-.32.78-.78.78h-5.96c-.45,0-.78-.32-.78-.78v-19.68c0-3.95-2.4-6.67-6.15-6.67s-6.21,2.65-6.21,6.6v19.75c0,.45-.32.78-.78.78h-5.96c-.45,0-.78-.32-.78-.78v-43.77c0-.45.32-.78.78-.78h5.96c.45,0,.78.32.78.78v14.31c0,.26.19.39.32.13,1.81-2.39,4.6-3.5,8.03-3.5,6.99,0,11.52,4.4,11.52,11.59Z"/>
        <path class="cls-2" d="M305.41,214.45v21.82c0,.45-.32.78-.78.78h-5.96c-.45,0-.78-.32-.78-.78v-2.07c0-.26-.19-.32-.39-.13-2.07,2.27-5.18,3.5-9.19,3.5-6.02,0-11.14-2.98-11.14-9.78s4.86-10.68,13.47-10.68h6.93c.19,0,.32-.13.32-.32v-1.55c0-3.3-1.94-5.31-5.96-5.31-3.3,0-5.37,1.23-5.89,3.3-.13.45-.45.71-.91.65l-6.28-.78c-.45-.06-.78-.32-.71-.65.65-5.18,6.02-9,13.6-9,8.29,0,13.66,4.66,13.66,11.01ZM297.9,225.65v-3.04c0-.19-.13-.32-.32-.32h-5.44c-4.47,0-7.38,1.75-7.38,4.99,0,2.85,2.33,4.34,5.44,4.34,4.08,0,7.71-2.4,7.71-5.96Z"/>
        <path class="cls-2" d="M329.17,210.05h-6.6c-.19,0-.32.13-.32.32v15.6c0,3.3,1.42,4.66,4.47,4.66h1.94c.45,0,.78.32.78.78v4.86c0,.45-.26.78-.78.84-1.17,0-2.27.06-3.37.06-6.21,0-10.16-1.49-10.23-8.35v-18.45c0-.19-.13-.32-.32-.32h-3.69c-.45,0-.78-.32-.78-.78v-4.53c0-.45.32-.78.78-.78h3.69c.19,0,.32-.13.32-.32v-7.58c0-.45.32-.78.78-.78h5.63c.45,0,.78.32.78.78v7.58c0,.19.13.32.32.32h6.6c.45,0,.78.32.78.78v4.53c0,.45-.32.78-.78.78Z"/>
        <path class="cls-2" d="M343.93,192.63l-5.12,12.62c-.13.39-.52.58-.91.58h-4.4c-.52,0-.78-.32-.65-.84l3.63-12.62c.13-.39.45-.65.91-.65h5.96c.58,0,.78.39.58.91Z"/>
        <path class="cls-2" d="M342.64,228.24v-.58c0-.45.32-.78.78-.78h5.7c.45,0,.78.32.78.78v.13c0,2.14,2.59,4.01,6.28,4.01,3.5,0,5.83-1.62,5.83-3.75,0-2.72-3.82-3.17-8.09-4.6-5.18-1.55-10.94-3.62-10.94-9.97s5.31-9.91,12.95-9.91,13.14,4.08,13.14,9.84c0,.45-.32.78-.78.78h-5.5c-.45,0-.78-.32-.78-.78,0-2.14-2.27-3.95-6.15-3.95-3.3,0-5.7,1.23-5.7,3.56,0,2.65,3.63,3.3,8.03,4.53,5.31,1.55,11.33,3.56,11.33,10.04s-5.31,9.84-13.27,9.84-13.6-3.95-13.6-9.19Z"/>
        <path class="cls-2" d="M416.19,215.03v21.24c0,.45-.32.78-.78.78h-5.96c-.45,0-.78-.32-.78-.78v-19.68c0-3.95-2.4-6.67-6.15-6.67s-6.21,2.65-6.21,6.6v19.75c0,.45-.32.78-.78.78h-5.96c-.45,0-.78-.32-.78-.78v-31.53c0-.45.32-.78.78-.78h5.96c.45,0,.78.32.78.78v2.07c0,.26.19.39.32.13,1.81-2.39,4.6-3.5,8.03-3.5,6.99,0,11.52,4.4,11.52,11.59Z"/>
        <path class="cls-2" d="M451.86,222.41c0,.52-.32.78-.78.78h-20.26c-.19,0-.32.13-.32.32.13,1.23.26,2.2.58,2.91.97,2.91,3.43,4.66,7.58,4.73,3.17,0,5.44-1.42,6.99-3.63.32-.45.71-.52,1.1-.19l4.01,3.3c.39.32.45.65.19,1.04-2.72,3.82-7.45,6.02-13.01,5.96-6.73-.13-11.33-3.3-13.47-8.61-1.04-2.4-1.49-5.31-1.49-8.74-.06-2.65.13-5.05.78-7.06,1.75-5.96,6.73-9.78,13.53-9.78,9.13,0,13.4,5.18,14.37,13.34.26,1.81.26,3.56.19,5.63ZM431.08,214.45c-.32.84-.45,1.75-.52,2.85-.07.19.06.32.26.32h13.14c.19,0,.32-.13.32-.32-.07-.97-.19-1.88-.39-2.46-.78-3.04-3.11-4.92-6.6-4.92-3.3,0-5.37,1.75-6.21,4.53Z"/>
        <path class="cls-2" d="M455.23,236.07l10.49-15.41c.06-.13.06-.26,0-.39l-10.49-15.34c-.32-.52-.06-.97.52-.97h6.34c.39,0,.71.19.91.52l6.73,9.97c.13.19.32.19.45,0l6.73-9.97c.19-.32.52-.52.91-.52h6.8c.58,0,.84.45.52.97l-10.49,15.34c-.06.13-.06.26,0,.39l10.49,15.41c.32.52.06.97-.52.97h-6.34c-.39,0-.71-.19-.91-.52l-6.73-9.97c-.13-.19-.32-.19-.45,0l-6.73,9.97c-.19.32-.52.52-.91.52h-6.8c-.58,0-.84-.45-.52-.97Z"/>
        <path class="cls-2" d="M507.67,210.05h-6.6c-.19,0-.32.13-.32.32v15.6c0,3.3,1.42,4.66,4.47,4.66h1.94c.45,0,.78.32.78.78v4.86c0,.45-.26.78-.78.84-1.17,0-2.27.06-3.37.06-6.21,0-10.16-1.49-10.23-8.35v-18.45c0-.19-.13-.32-.32-.32h-3.69c-.45,0-.78-.32-.78-.78v-4.53c0-.45.32-.78.78-.78h3.69c.19,0,.32-.13.32-.32v-7.58c0-.45.32-.78.78-.78h5.63c.45,0,.78.32.78.78v7.58c0,.19.13.32.32.32h6.6c.45,0,.78.32.78.78v4.53c0,.45-.32.78-.78.78Z"/>
      </g>
      <g>
        <path class="cls-3" d="M46.27,124.95l65.04-48.18c.93-.69.44-2.17-.72-2.17h-53.31c-6.18,0-12.11,2.46-16.49,6.83L6.83,115.38c-4.37,4.37-6.83,10.3-6.83,16.49v48.02c0,6.18,2.46,12.11,6.83,16.48l33.96,33.95c4.37,4.37,10.3,6.83,16.49,6.83h46.19c1.28,0,1.68-1.74.51-2.29L12.19,191.59c-3.83-1.81-6.28-5.66-6.28-9.9v-23.03c0-2.4,1.14-4.67,3.07-6.1l13.22-9.8v-17.82h24.06Z"/>
        <polygon class="cls-4" points="109.52 143.53 103.26 160.62 115.55 160.62 109.52 143.53"/>
        <path class="cls-4" d="M56.73,144.22c0-5.46-3.73-6.25-7.68-6.25h-7.91v12.87h7.62c4.04,0,7.97-.53,7.97-6.62Z"/>
        <path class="cls-4" d="M156.65,116.29l-31.62-31.62c-1.78-1.78-4.58-2.03-6.64-.59l-60.85,40.98c11.52.72,18.5,5.39,18.5,16.04,0,9.29-5.02,15.08-13.49,16.08v.16c3.94.73,6.56,2.55,8.49,5.01.68.86,1.14,1.87,1.41,2.94l4.81,14.56,20.68-51.8c.73-1.82,2.49-3.01,4.45-3.01h18.17l24.16,60.5h-14.95c-3.03,0-5.87-1.92-7.16-4.8h0s-2.33-6.63-2.33-6.63h-21.95l-4.26,11.43h-32.79c-1.75,0-3.25-1.29-3.55-3.06l-5.45-15.86c-.76-2.71-3.46-3.14-6.11-3.14h-5.31v22.06h-18.66v-36.68l-11.16,7.52c-1.01.7-1.61,1.86-1.61,3.09v23.35c0,1.5.89,2.86,2.27,3.45l105.27,44.06c1.95.85,4.22.42,5.73-1.08l33.92-33.78c3.81-3.79,5.95-8.95,5.95-14.33v-50.56c0-5.36-2.13-10.5-5.92-14.29Z"/>
      </g>
      <g>
        <path class="cls-2" d="M78.63,49.24l-1.95-6.38c-.07-.13-.13-.26-.33-.26h-16.03c-.2,0-.26.13-.33.26l-1.89,6.38c-.13.39-.39.65-.85.65h-8.28c-.52,0-.85-.33-.65-.91L62.41,4.94c.13-.39.39-.65.85-.65h10.23c.46,0,.72.26.85.65l14.07,44.04c.2.59-.13.91-.65.91h-8.27c-.46,0-.72-.26-.85-.65ZM62.6,35.5h11.47c.2,0,.33-.13.26-.39l-5.86-19.35c-.07-.33-.33-.26-.39,0l-5.73,19.35c-.07.26.06.39.26.39Z"/>
        <path class="cls-2" d="M113.94,16.41h7.62c.46,0,.78.33.78.78v31.93c0,.46-.33.78-.78.78h-7.62c-.46,0-.78-.33-.78-.78v-2.21c0-.26-.2-.33-.39-.07-1.69,2.28-4.37,3.52-8.08,3.52-6.32,0-11.34-3.91-11.34-11.4v-21.76c0-.46.33-.78.78-.78h7.56c.46,0,.78.33.78.78v19.48c0,3.45,1.96,5.86,5.28,5.86,3,0,5.02-1.96,5.41-4.82v-20.52c0-.46.33-.78.78-.78Z"/>
        <path class="cls-2" d="M147.56,23.77h-6.25c-.2,0-.33.13-.33.33v13.81c0,2.87,1.11,4.24,3.71,4.24h2.15c.46,0,.78.33.78.78v6.19c0,.46-.26.78-.78.85-1.37.06-2.67.13-3.91.13-6.65,0-10.75-1.56-10.82-8.54v-17.46c0-.2-.13-.33-.33-.33h-3.71c-.46,0-.78-.33-.78-.78v-5.8c0-.46.33-.78.78-.78h3.71c.2,0,.33-.13.33-.33v-7.75c0-.46.33-.78.78-.78h7.3c.46,0,.78.33.78.78v7.75c0,.2.13.33.33.33h6.25c.46,0,.78.33.78.78v5.8c0,.46-.33.78-.78.78Z"/>
        <path class="cls-2" d="M153.48,39.73c-.59-1.95-.91-4.3-.91-6.65,0-2.48.33-4.95.91-6.91,2.02-6.39,7.43-10.29,14.79-10.29s12.45,3.91,14.46,10.23c.65,2.02,1.04,4.43,1.04,6.84s-.33,4.63-.91,6.58c-1.89,6.71-7.3,10.88-14.66,10.88s-12.84-4.1-14.73-10.68ZM174.01,37.65c.33-1.3.52-2.93.52-4.56,0-1.76-.2-3.45-.52-4.63-.91-2.93-2.93-4.69-5.86-4.69s-4.95,1.82-5.8,4.69c-.39,1.17-.52,2.87-.52,4.63s.13,3.39.46,4.56c.85,3,2.93,4.89,5.93,4.89s4.95-1.89,5.8-4.89Z"/>
        <path class="cls-2" d="M237.66,27.55v21.57c0,.46-.33.78-.78.78h-7.62c-.46,0-.78-.33-.78-.78v-19.55c0-3.52-1.96-5.8-5.02-5.8s-5.15,2.21-5.15,5.73v19.61c0,.46-.33.78-.78.78h-7.56c-.46,0-.78-.33-.78-.78v-19.55c0-3.52-2.08-5.8-5.15-5.8-2.8,0-4.76,1.76-5.15,4.69v20.65c0,.46-.33.78-.78.78h-7.62c-.46,0-.78-.33-.78-.78v-31.93c0-.46.33-.78.78-.78h7.62c.46,0,.78.33.78.78v2.54c0,.26.2.39.39.13,1.82-2.74,4.69-3.97,8.27-3.97,4.37,0,7.69,1.96,9.45,5.28.13.26.26.26.46,0,1.95-3.65,5.41-5.28,9.38-5.28,6.78,0,10.82,4.3,10.82,11.66Z"/>
        <path class="cls-2" d="M272.06,27.02v22.09c0,.46-.33.78-.78.78h-7.62c-.46,0-.78-.33-.78-.78v-2.15c0-.26-.2-.39-.39-.13-1.82,2.41-4.76,3.58-8.8,3.58-6.38,0-11.34-3.06-11.34-9.77s4.76-10.56,13.55-10.56h6.65c.2,0,.33-.13.33-.33v-1.43c0-2.8-1.69-4.56-5.21-4.56-2.74,0-4.56,1.04-5.08,2.74-.13.46-.39.72-.85.65l-7.88-1.04c-.46-.06-.78-.26-.72-.59.59-5.54,6.38-9.64,14.33-9.64,8.6,0,14.59,4.82,14.59,11.14ZM262.87,38.23v-2.35c0-.2-.13-.33-.33-.33h-4.69c-3.84,0-6.25,1.5-6.25,4.24,0,2.35,1.82,3.78,4.56,3.78,3.65,0,6.71-2.15,6.71-5.34Z"/>
        <path class="cls-2" d="M296.23,23.77h-6.25c-.2,0-.33.13-.33.33v13.81c0,2.87,1.11,4.24,3.71,4.24h2.15c.46,0,.78.33.78.78v6.19c0,.46-.26.78-.78.85-1.37.06-2.67.13-3.91.13-6.65,0-10.75-1.56-10.82-8.54v-17.46c0-.2-.13-.33-.33-.33h-3.71c-.46,0-.78-.33-.78-.78v-5.8c0-.46.33-.78.78-.78h3.71c.2,0,.33-.13.33-.33v-7.75c0-.46.33-.78.78-.78h7.3c.46,0,.78.33.78.78v7.75c0,.2.13.33.33.33h6.25c.46,0,.78.33.78.78v5.8c0,.46-.33.78-.78.78Z"/>
        <path class="cls-2" d="M302.35,7.48c0-3.06,2.15-5.15,5.15-5.15s5.15,2.09,5.15,5.15-2.22,5.15-5.15,5.15-5.15-2.21-5.15-5.15ZM302.8,49.11v-31.99c0-.46.33-.78.78-.78h7.62c.46,0,.78.33.78.78v31.99c0,.46-.33.78-.78.78h-7.62c-.46,0-.78-.33-.78-.78Z"/>
        <path class="cls-2" d="M319.22,39.73c-.59-1.95-.91-4.3-.91-6.65,0-2.48.33-4.95.91-6.91,2.02-6.39,7.43-10.29,14.79-10.29s12.45,3.91,14.46,10.23c.65,2.02,1.04,4.43,1.04,6.84s-.33,4.63-.91,6.58c-1.89,6.71-7.3,10.88-14.66,10.88s-12.84-4.1-14.73-10.68ZM339.74,37.65c.33-1.3.52-2.93.52-4.56,0-1.76-.2-3.45-.52-4.63-.91-2.93-2.93-4.69-5.86-4.69s-4.95,1.82-5.8,4.69c-.39,1.17-.52,2.87-.52,4.63s.13,3.39.46,4.56c.85,3,2.93,4.89,5.93,4.89s4.95-1.89,5.8-4.89Z"/>
        <path class="cls-2" d="M384.5,27.74v21.37c0,.46-.33.78-.78.78h-7.62c-.46,0-.78-.33-.78-.78v-19.48c0-3.45-2.15-5.86-5.34-5.86s-5.34,2.34-5.34,5.86v19.48c0,.46-.33.78-.78.78h-7.62c-.46,0-.78-.33-.78-.78v-31.93c0-.46.33-.78.78-.78h7.62c.46,0,.78.33.78.78v2.28c0,.26.2.39.33.2,1.82-2.61,4.5-3.78,7.95-3.78,6.84,0,11.6,4.43,11.6,11.86Z"/>
        <path class="cls-2" d="M435.51,12.17h-21.31c-.2,0-.33.13-.33.33v10.1c0,.2.13.33.33.33h14.01c.46,0,.78.33.78.78v6.32c0,.46-.33.78-.78.78h-14.01c-.2,0-.33.13-.33.33v17.98c0,.46-.33.78-.78.78h-7.62c-.46,0-.78-.33-.78-.78V5.07c0-.46.33-.78.78-.78h30.04c.46,0,.78.33.78.78v6.32c0,.46-.33.78-.78.78Z"/>
        <path class="cls-2" d="M465.35,27.02v22.09c0,.46-.33.78-.78.78h-7.62c-.46,0-.78-.33-.78-.78v-2.15c0-.26-.2-.39-.39-.13-1.82,2.41-4.76,3.58-8.8,3.58-6.38,0-11.34-3.06-11.34-9.77s4.76-10.56,13.55-10.56h6.65c.2,0,.33-.13.33-.33v-1.43c0-2.8-1.69-4.56-5.21-4.56-2.74,0-4.56,1.04-5.08,2.74-.13.46-.39.72-.85.65l-7.88-1.04c-.46-.06-.78-.26-.72-.59.59-5.54,6.38-9.64,14.33-9.64,8.6,0,14.59,4.82,14.59,11.14ZM456.17,38.23v-2.35c0-.2-.13-.33-.33-.33h-4.69c-3.84,0-6.25,1.5-6.25,4.24,0,2.35,1.82,3.78,4.56,3.78,3.65,0,6.71-2.15,6.71-5.34Z"/>
        <path class="cls-2" d="M471.6,7.48c0-3.06,2.15-5.15,5.15-5.15s5.15,2.09,5.15,5.15-2.22,5.15-5.15,5.15-5.15-2.21-5.15-5.15ZM472.06,49.11v-31.99c0-.46.33-.78.78-.78h7.62c.46,0,.78.33.78.78v31.99c0,.46-.33.78-.78.78h-7.62c-.46,0-.78-.33-.78-.78Z"/>
        <path class="cls-2" d="M508.81,16.86c.39.2.46.59.39.98l-1.37,7.43c-.07.52-.39.65-.91.46-.85-.26-2.28-.46-3.71-.2-2.93.26-5.6,2.28-5.6,5.8v17.79c0,.46-.33.78-.78.78h-7.62c-.46,0-.78-.33-.78-.78v-31.93c0-.46.33-.78.78-.78h7.62c.46,0,.78.33.78.78v2.48c0,.26.2.39.33.2,1.63-2.41,3.97-3.91,7.17-3.91,1.69,0,2.93.39,3.71.91Z"/>
        <path class="cls-2" d="M526.16,8.75c0,4.48-3.34,7.79-7.75,7.79s-7.71-3.3-7.71-7.79,3.3-7.52,7.71-7.52,7.75,3.23,7.75,7.52ZM523.88,8.75c0-3-2.35-5.32-5.47-5.32s-5.43,2.32-5.43,5.32c0,3.23,2.32,5.54,5.43,5.54s5.47-2.32,5.47-5.54ZM520.19,9.32c-.11.04-.11.11-.08.23l.8,2.24c.11.34-.08.53-.38.53h-.95c-.27,0-.42-.15-.49-.38l-.72-2.13c-.04-.08-.08-.15-.19-.15h-.08c-.11,0-.19.08-.19.19v2.01c0,.27-.19.46-.46.46h-.83c-.27,0-.46-.19-.46-.46v-6.11c0-.27.19-.46.46-.46h2.24c1.37,0,2.24.99,2.24,2.24,0,.8-.3,1.44-.91,1.79ZM517.91,7.01v1.14c0,.11.08.19.19.19h.49c.46,0,.76-.34.76-.76,0-.46-.3-.76-.76-.76h-.49c-.11,0-.19.08-.19.19Z"/>
      </g>
    </g>
  </g>
</svg>